<?xml version="1.0" encoding="utf-8"?>
<!-- Generator: Adobe Illustrator 16.0.0, SVG Export Plug-In . SVG Version: 6.00 Build 0)  -->
<!DOCTYPE svg PUBLIC "-//W3C//DTD SVG 1.1//EN" "http://www.w3.org/Graphics/SVG/1.1/DTD/svg11.dtd">
<svg version="1.1" xmlns="http://www.w3.org/2000/svg" xmlns:xlink="http://www.w3.org/1999/xlink" x="0px" y="0px" width="250px"
	 height="250px" viewBox="0 0 250 250" style="enable-background:new 0 0 250 250;" xml:space="preserve">
<style type="text/css">
<![CDATA[
	.st0{fill-rule:evenodd;clip-rule:evenodd;fill:#0ABA66;}
	.st1{fill:none;stroke:#29AE63;stroke-width:1.0001;stroke-miterlimit:10;}
	.st2{fill:#F3A826;}
	.st3{font-size:15.4984;}
	.st4{fill:#FF4646;}
	.st5{fill:#FFFFFF;}
	.st6{fill:none;stroke:#E9A22D;stroke-width:1.0001;stroke-miterlimit:10;}
	.st7{opacity:0.01;fill:#FFFFFF;}
	.st8{fill:none;stroke:#E84947;stroke-width:1.0001;stroke-miterlimit:10;}
	.st9{font-family:'MicrosoftYaHei';}
	.st10{fill:#0ABA66;}
]]>
</style>
<g id="dashboard">
	<circle class="st5" cx="125" cy="125" r="125"/>
	<path class="st0" d="M1.556,105.552c-1.008,6.336-1.512,12.815-1.512,19.439c0,34.488,13.968,65.664,36.576,88.271l7.128-7.055
		c-20.809-20.736-33.696-49.465-33.696-81.217c0-6.12,0.504-12.096,1.368-17.928L1.556,105.552z"/>
	<path class="st2" d="M125.036,0C62.613,0,10.917,45.72,1.556,105.552l9.864,1.512C20.06,52.056,67.653,9.936,125.036,9.936
		c57.219,0,104.653,41.873,113.462,96.635l9.853-1.619C238.764,45.437,187.197,0,125.036,0z"/>
	<path class="st4" d="M238.498,106.571c0.004,0.021,0.008,0.041,0.011,0.062c0.936,5.976,1.439,12.096,1.439,18.359
		c0,31.752-12.814,60.48-33.623,81.217l7.057,7.055c22.607-22.607,36.574-53.783,36.574-88.271c0-6.823-0.555-13.515-1.605-20.04
		L238.498,106.571z"/>
	<line class="st1" x1="35.757" y1="185.616" x2="29.565" y2="189.792"/>
	<line class="st6" x1="27.261" y1="79.128" x2="20.565" y2="75.96"/>
	<line class="st1" x1="19.701" y1="148.608" x2="12.429" y2="150.192"/>
	<line class="st6" x1="190.917" y1="39.457" x2="195.453" y2="33.552"/>
	<line class="st8" x1="214.533" y1="185.472" x2="220.654" y2="189.576"/>
	<line class="st6" x1="51.021" y1="46.44" x2="45.91" y2="41.041"/>
	<line class="st8" x1="230.517" y1="148.248" x2="237.789" y2="149.832"/>
	<line class="st6" x1="217.773" y1="69.696" x2="224.181" y2="65.88"/>
	<line class="st6" x1="164.494" y1="24.408" x2="167.229" y2="17.496"/>
	<line class="st6" x1="85.078" y1="24.696" x2="82.341" y2="17.784"/>
	<line class="st1" x1="30.429" y1="177.048" x2="23.876" y2="180.576"/>
	<line class="st6" x1="222.597" y1="78.625" x2="229.292" y2="75.457"/>
	<line class="st8" x1="232.75" y1="117.864" x2="240.166" y2="117.36"/>
	<line class="st6" x1="198.621" y1="46.007" x2="203.734" y2="40.608"/>
	<line class="st6" x1="58.725" y1="39.816" x2="54.117" y2="33.912"/>
	<line class="st6" x1="32.013" y1="70.128" x2="25.605" y2="66.384"/>
	<line class="st1" x1="17.902" y1="138.599" x2="10.557" y2="139.536"/>
	<line class="st6" x1="94.654" y1="21.384" x2="92.565" y2="14.255"/>
	<line class="st8" x1="208.414" y1="193.536" x2="214.173" y2="198.288"/>
	<line class="st6" x1="134.902" y1="17.423" x2="135.549" y2="10.08"/>
	<line class="st1" x1="25.965" y1="167.904" x2="19.125" y2="170.856"/>
	<line class="st6" x1="226.486" y1="88.056" x2="233.541" y2="85.536"/>
	<line class="st1" x1="17.181" y1="128.448" x2="9.693" y2="128.664"/>
	<line class="st8" x1="232.965" y1="128.015" x2="240.381" y2="128.232"/>
	<line class="st6" x1="205.75" y1="53.28" x2="211.292" y2="48.384"/>
	<line class="st6" x1="20.421" y1="98.208" x2="13.221" y2="96.408"/>
	<line class="st6" x1="67.005" y1="33.912" x2="62.973" y2="27.648"/>
	<line class="st8" x1="224.253" y1="167.616" x2="231.093" y2="170.568"/>
	<line class="st6" x1="104.517" y1="18.935" x2="103.149" y2="11.664"/>
	<line class="st6" x1="144.981" y1="18.864" x2="146.349" y2="11.519"/>
	<line class="st6" x1="182.565" y1="33.625" x2="186.525" y2="27.288"/>
	<line class="st1" x1="41.876" y1="193.751" x2="36.117" y2="198.503"/>
	<line class="st6" x1="114.597" y1="17.496" x2="113.876" y2="10.08"/>
	<line class="st6" x1="23.445" y1="88.56" x2="16.389" y2="86.041"/>
	<line class="st6" x1="229.582" y1="97.776" x2="236.781" y2="95.904"/>
	<line class="st6" x1="154.845" y1="21.167" x2="156.933" y2="14.041"/>
	<line class="st8" x1="219.789" y1="176.759" x2="226.341" y2="180.288"/>
	<line class="st6" x1="43.965" y1="53.712" x2="38.349" y2="48.816"/>
	<line class="st1" x1="17.326" y1="118.296" x2="9.91" y2="117.864"/>
	<line class="st8" x1="232.246" y1="138.167" x2="239.589" y2="139.104"/>
	<line class="st8" x1="223.677" y1="109.007" x2="238.941" y2="106.56"/>
	<line class="st6" x1="124.75" y1="24.984" x2="124.75" y2="9.576"/>
	<line class="st1" x1="26.181" y1="109.44" x2="11.061" y2="107.064"/>
	<line class="st8" x1="220.149" y1="155.591" x2="234.91" y2="160.343"/>
	<line class="st1" x1="54.333" y1="195.625" x2="43.46" y2="206.496"/>
	<line class="st6" x1="170.181" y1="35.712" x2="177.093" y2="21.96"/>
	<line class="st6" x1="44.037" y1="66.312" x2="31.582" y2="57.312"/>
	<line class="st8" x1="195.813" y1="195.408" x2="206.83" y2="206.351"/>
	<line class="st1" x1="29.853" y1="155.952" x2="15.309" y2="160.704"/>
	<line class="st6" x1="205.677" y1="65.952" x2="218.133" y2="56.808"/>
	<line class="st6" x1="79.389" y1="35.927" x2="72.406" y2="22.248"/>
</g>
<g id="dashboard-text">
	<text transform="matrix(-0.2969 -0.9549 0.9549 -0.2969 57.7256 177.0474)" class="st10 st9 st3">第一阶段</text>
	<text transform="matrix(1 0 0 1 93.584 46.0073)" class="st2 st9 st3">第二阶段</text>
	<text transform="matrix(-0.2843 0.9587 -0.9587 -0.2843 211.2944 118.0796)" class="st4 st9 st3">第三阶段</text>
</g>
<g id="dashboard-pointer">
	<polygon class="st7" points="128.285,128.537 191.924,57.826 121.214,121.466 	"/>
	<path class="st10" d="M121.16,121.519l0.003,0.003l-63.589,70.654l70.655-63.589l0.002,0.003l0.005-0.01l0.049-0.044l-0.018-0.018
		l7.089-14.125l-14.125,7.089l-0.018-0.018l-0.044,0.048L121.16,121.519z M125.986,123.41c0.781,0.781,0.781,2.047,0,2.828
		c-0.781,0.781-2.048,0.781-2.829,0c-0.781-0.781-0.781-2.047,0-2.828C123.938,122.628,125.205,122.628,125.986,123.41z"/>
</g>
</svg>
